<?xml version="1.0" standalone="no"?>
<!DOCTYPE svg PUBLIC "-//W3C//DTD SVG 20010904//EN"
 "http://www.w3.org/TR/2001/REC-SVG-20010904/DTD/svg10.dtd">
<svg version="1.0" xmlns="http://www.w3.org/2000/svg"
 width="512.000000pt" height="512.000000pt" viewBox="0 0 512.000000 512.000000"
 preserveAspectRatio="xMidYMid meet">
<metadata>
Created by potrace 1.11, written by Peter Selinger 2001-2013
</metadata>
<g transform="translate(0.000000,512.000000) scale(0.100000,-0.100000)"
fill="#000000" stroke="none">
<path d="M440 4401 c-82 -27 -152 -95 -174 -171 -17 -57 -13 -188 10 -375 4
-35 14 -94 31 -185 10 -57 46 -190 70 -260 65 -192 158 -351 280 -480 l75 -80
-32 -57 c-125 -224 -338 -423 -587 -547 -100 -50 -118 -70 -109 -120 12 -63
150 -158 304 -210 l63 -21 -43 -42 c-58 -57 -149 -109 -229 -133 -75 -23 -88
-34 -96 -82 -4 -27 0 -40 18 -62 26 -28 35 -31 144 -40 75 -7 90 -9 205 -32
190 -39 425 -143 511 -226 18 -18 191 -146 249 -185 230 -155 564 -292 855
-351 218 -45 295 -51 610 -47 315 4 332 5 510 40 408 81 735 235 1116 526 69
53 156 111 193 128 129 62 328 122 456 137 30 4 62 8 70 10 8 1 39 3 68 3 46
1 58 5 84 31 26 26 30 36 25 66 -8 51 -21 61 -96 84 -79 23 -178 81 -232 135
l-40 39 65 22 c141 48 288 148 301 204 12 52 -9 77 -107 126 -141 70 -245 143
-350 246 -125 123 -172 182 -237 301 l-32 58 74 79 c41 44 96 112 123 152 86
131 171 337 210 510 2 10 6 27 9 39 2 11 6 28 9 37 5 16 8 36 21 125 31 220
38 373 19 438 -20 68 -82 133 -152 159 -69 26 -118 24 -277 -14 -294 -71 -559
-182 -816 -342 -50 -31 -98 -54 -114 -54 -15 0 -59 20 -99 44 -158 99 -349
175 -551 218 -158 33 -412 33 -570 -1 -201 -42 -404 -123 -561 -222 -34 -22
-72 -40 -85 -41 -15 -1 -70 26 -142 70 -133 82 -325 177 -449 223 -269 99
-523 155 -598 130z m190 -185 c248 -54 539 -173 755 -306 145 -90 169 -100
232 -101 68 -1 106 13 207 75 118 74 328 161 433 180 15 2 55 10 88 17 68 14
299 18 390 7 172 -22 443 -121 573 -210 111 -76 200 -90 294 -44 29 14 94 51
143 81 216 134 494 245 764 305 107 24 143 20 169 -18 21 -30 21 -98 1 -272
-17 -149 -19 -160 -39 -250 -54 -240 -134 -426 -245 -569 -81 -106 -74 -107
-140 11 -59 104 -141 231 -179 279 -12 14 -32 40 -46 59 -14 18 -39 49 -57 69
l-31 35 65 44 c87 58 189 105 298 137 100 29 123 46 130 94 5 44 -38 91 -84
91 -40 0 -223 -61 -302 -100 -134 -68 -279 -173 -304 -221 -17 -32 -9 -67 24
-106 14 -15 48 -55 76 -88 142 -164 259 -354 374 -608 109 -239 315 -474 554
-628 64 -41 84 -59 75 -66 -23 -18 -152 -53 -210 -57 -112 -9 -141 -63 -88
-166 25 -50 85 -127 132 -171 21 -19 38 -38 38 -41 0 -3 -17 -9 -37 -13 -63
-11 -222 -65 -302 -102 -99 -45 -153 -79 -281 -178 -299 -232 -565 -365 -895
-450 -224 -57 -356 -72 -645 -72 -247 0 -391 13 -564 52 -368 83 -675 234
-1016 500 -52 41 -140 97 -195 125 -104 52 -279 114 -353 126 l-43 7 53 51
c87 83 162 207 154 253 -6 29 -28 61 -46 69 -8 3 -40 7 -71 10 -60 4 -174 36
-202 56 -17 13 -15 16 25 38 66 37 216 152 283 217 162 158 223 251 388 588
86 176 203 350 341 505 36 41 67 80 67 87 1 7 2 19 3 26 6 39 -51 97 -179 179
-102 66 -185 106 -302 144 -113 37 -139 40 -177 23 -47 -22 -55 -102 -14 -137
8 -6 54 -23 103 -37 48 -14 121 -41 160 -59 74 -34 195 -111 195 -124 0 -4
-10 -18 -23 -32 -20 -22 -69 -86 -147 -190 -23 -31 -51 -75 -85 -132 -5 -9
-32 -55 -58 -103 -48 -86 -49 -86 -69 -68 -41 36 -130 166 -173 251 -78 156
-136 348 -161 531 -3 25 -8 57 -10 71 -2 14 -7 66 -10 115 -4 50 -7 104 -9
120 -3 41 13 82 38 100 24 17 59 15 167 -9z"/>
<path d="M2457 3334 c-1 -1 -69 -4 -152 -8 -82 -3 -163 -8 -180 -10 -16 -2
-57 -7 -90 -12 -33 -4 -69 -8 -80 -10 -34 -4 -98 -15 -145 -26 -25 -5 -53 -11
-63 -13 -79 -16 -235 -71 -317 -111 -163 -79 -279 -185 -344 -314 -42 -83 -57
-148 -60 -257 -5 -211 59 -408 172 -527 189 -199 538 -228 802 -67 64 39 203
111 214 111 3 0 12 -16 20 -35 8 -19 25 -46 38 -59 13 -13 52 -54 88 -91 77
-80 105 -96 182 -102 79 -8 133 14 198 81 101 104 138 148 150 177 10 24 17
28 34 23 24 -8 114 -56 200 -108 308 -186 709 -108 871 168 67 114 106 292 99
453 -14 303 -242 528 -649 638 -142 38 -230 55 -370 70 -33 4 -71 9 -85 11
-61 9 -524 25 -533 18z m353 -178 c137 -8 235 -18 385 -41 160 -25 373 -95
486 -161 77 -45 169 -138 199 -200 85 -179 45 -452 -87 -591 -73 -77 -174
-115 -308 -115 -111 0 -187 23 -300 91 -141 85 -206 114 -335 151 -94 27 -489
27 -583 0 -121 -35 -211 -77 -372 -176 -128 -78 -331 -88 -471 -23 -133 63
-218 223 -227 431 -9 180 58 307 216 411 125 83 343 159 522 183 28 3 52 8 55
9 3 2 35 6 70 10 36 3 79 8 95 10 17 2 86 7 155 10 69 4 126 8 127 9 4 3 276
-2 373 -8z m-92 -1025 c10 -6 -5 -28 -59 -85 -95 -101 -103 -101 -199 0 -55
58 -69 79 -59 85 18 11 300 11 317 0z"/>
<path d="M1624 2893 c-54 -18 -119 -75 -145 -125 -28 -54 -35 -132 -17 -184
12 -35 13 -44 1 -60 -30 -41 -7 -104 44 -121 16 -5 113 -9 217 -8 l188 1 24
27 c25 29 32 85 14 103 -7 7 -6 27 3 64 49 193 -140 367 -329 303z m144 -190
c56 -61 -4 -153 -85 -131 -40 10 -67 56 -58 98 15 69 93 87 143 33z"/>
<path d="M3342 2896 c-88 -29 -144 -83 -172 -171 -17 -50 -15 -102 5 -171 4
-12 2 -25 -4 -28 -20 -13 -12 -73 13 -103 l24 -27 197 -1 c168 0 201 2 225 17
34 20 47 67 30 108 -7 17 -9 38 -5 47 16 42 17 113 1 161 -44 131 -188 208
-314 168z m132 -186 c23 -22 28 -78 9 -107 -44 -66 -153 -32 -153 49 0 72 90
109 144 58z"/>
<path d="M2178 1614 c-32 -17 -48 -58 -43 -107 24 -223 205 -390 420 -389 209
1 376 135 420 336 15 71 15 82 1 123 -17 50 -26 52 -413 51 -276 -1 -366 -4
-385 -14z m622 -164 c-1 -9 -24 -45 -45 -71 -66 -81 -194 -113 -289 -74 -61
26 -159 128 -141 147 6 6 475 5 475 -2z"/>
</g>
</svg>
